<svg width="100" height="100" viewBox="0 0 100 100" fill="none" xmlns="http://www.w3.org/2000/svg">
<path d="M0 16C0 7.16345 7.16344 0 16 0H84C92.8366 0 100 7.16344 100 16V84C100 92.8366 92.8366 100 84 100H16C7.16345 100 0 92.8366 0 84V16Z" fill="url(#paint0_linear_111_674)"/>
<path d="M76.0544 36.4044C75.6769 35.8982 75.0826 35.6 74.4511 35.6H61.5455C60.4409 35.6 59.5455 36.4954 59.5455 37.6V52.8C59.5455 53.9046 58.65 54.8 57.5455 54.8H20.1818C19.0772 54.8 18.1818 55.6954 18.1818 56.8V62.8091C18.1818 63.6877 18.8941 64.4 19.7727 64.4C20.6514 64.4 21.3502 65.1171 21.4944 65.9838C21.8202 67.9424 22.7449 69.7656 24.1594 71.1882C25.9496 72.9886 28.3775 74 30.9091 74C33.4407 74 35.8686 72.9886 37.6587 71.1882C38.976 69.8634 39.8685 68.1913 40.2481 66.3858C40.4754 65.3049 41.35 64.4 42.4545 64.4H57.5455C58.65 64.4 59.5246 65.3049 59.7519 66.3858C60.1315 68.1913 61.024 69.8634 62.3413 71.1882C64.1314 72.9886 66.5593 74 69.0909 74C71.6225 74 74.0504 72.9886 75.8406 71.1882C77.1578 69.8634 78.0504 68.1913 78.4299 66.3858C78.6572 65.3049 79.5318 64.4 80.6364 64.4H83C84.1046 64.4 85 63.5046 85 62.4V49.0636C85 48.6328 84.8608 48.2134 84.6033 47.868L76.0544 36.4044ZM30.9091 69.2C29.6433 69.2 28.4293 68.6943 27.5343 67.7941C26.6392 66.8939 26.1364 65.673 26.1364 64.4C26.1364 63.127 26.6392 61.9061 27.5343 61.0059C28.4293 60.1057 29.6433 59.6 30.9091 59.6C32.1749 59.6 33.3889 60.1057 34.2839 61.0059C35.179 61.9061 35.6818 63.127 35.6818 64.4C35.6818 65.673 35.179 66.8939 34.2839 67.7941C33.3889 68.6943 32.1749 69.2 30.9091 69.2ZM69.0909 69.2C67.8251 69.2 66.6111 68.6943 65.7161 67.7941C64.821 66.8939 64.3182 65.673 64.3182 64.4C64.3182 63.127 64.821 61.9061 65.7161 61.0059C66.6111 60.1057 67.8251 59.6 69.0909 59.6C70.3567 59.6 71.5707 60.1057 72.4657 61.0059C73.3608 61.9061 73.8636 63.127 73.8636 64.4C73.8636 65.673 73.3608 66.8939 72.4657 67.7941C71.5707 68.6943 70.3567 69.2 69.0909 69.2ZM67.9091 48.4C66.8045 48.4 65.9091 47.5046 65.9091 46.4V42.4C65.9091 41.2954 66.8045 40.4 67.9091 40.4H72.8868C73.5032 40.4 74.0852 40.6842 74.4642 41.1704L77.5824 45.1704C78.6062 46.4838 77.6703 48.4 76.005 48.4H67.9091ZM69.0909 30.4C69.0909 31.5046 68.1955 32.4 67.0909 32.4H58.3636C57.2591 32.4 56.3636 33.2954 56.3636 34.4V49.6C56.3636 50.7046 55.4682 51.6 54.3636 51.6H22.8742C21.9803 51.6 21.195 51.0069 20.9505 50.1471L17.0271 36.3506C16.9008 35.9064 16.4951 35.6 16.0333 35.6C15.4626 35.6 15 35.1374 15 34.5667V31.2C15 30.0954 15.8954 29.2 17 29.2H52.35C52.8825 29.2 53.3929 28.9877 53.7683 28.6102L55.7772 26.5898C56.1526 26.2123 56.663 26 57.1954 26H67.0909C68.1955 26 69.0909 26.8954 69.0909 28V30.4Z" fill="#7C3C2D"/>
<defs>
<linearGradient id="paint0_linear_111_674" x1="0" y1="50" x2="100" y2="50" gradientUnits="userSpaceOnUse">
<stop stop-color="#F7971E"/>
<stop offset="1" stop-color="#FFD200"/>
</linearGradient>
</defs>
</svg>
