<svg width="568" height="79" viewBox="0 0 568 79" fill="none" xmlns="http://www.w3.org/2000/svg">
<g filter="url(#filter0_d_2112_440)">
<path d="M4.06028 70V1.34199H14.3541V31.5437H48.7317V1.34199H59.0255V70H48.7317V40.9636H14.3541V70H4.06028ZM67.8066 70L93.7354 1.34199H107.04L132.871 70H121.801L116.751 56.2101H83.9271L78.8773 70H67.8066ZM87.326 46.9845H113.352L100.339 11.1503L87.326 46.9845ZM141.475 70V1.34199H167.598C170.9 1.34199 173.91 1.63332 176.629 2.21599C179.413 2.73392 181.809 3.67267 183.816 5.03223C185.823 6.32705 187.344 8.10744 188.38 10.3734C189.481 12.5746 190.031 15.3584 190.031 18.725C190.031 22.0268 189.286 25.0049 187.797 27.6593C186.308 30.2489 184.042 32.1912 180.999 33.486C185.078 34.3924 188.153 36.3022 190.225 39.2156C192.361 42.0642 193.43 45.7544 193.43 50.2863C193.43 54.106 192.718 57.3107 191.293 59.9004C189.869 62.4253 187.894 64.4323 185.369 65.9213C182.845 67.4104 179.931 68.4786 176.629 69.126C173.392 69.7087 169.929 70 166.238 70H141.475ZM151.769 60.5802H166.433C168.375 60.5802 170.317 60.483 172.259 60.2888C174.202 60.0299 175.982 59.5443 177.601 58.8321C179.284 58.12 180.611 57.0518 181.582 55.6275C182.618 54.2032 183.136 52.2933 183.136 49.8979C183.136 47.8909 182.747 46.24 181.971 44.9452C181.194 43.5856 180.158 42.5174 178.863 41.7405C177.568 40.9636 176.047 40.4133 174.299 40.0896C172.615 39.7659 170.867 39.604 169.055 39.604H151.769V60.5802ZM151.769 30.7668H164.782C166.983 30.7668 168.99 30.5726 170.803 30.1842C172.68 29.7957 174.299 29.1483 175.658 28.2419C177.018 27.3356 178.054 26.2026 178.766 24.843C179.543 23.4835 179.931 21.8002 179.931 19.7932C179.931 17.1388 179.349 15.1966 178.183 13.9665C177.018 12.6717 175.432 11.7977 173.425 11.3445C171.482 10.8913 169.314 10.6647 166.918 10.6647H151.769V30.7668ZM205.871 70V1.34199H216.164V53.3939L251.61 1.34199H261.516V70H251.319V18.4337L215.679 70H205.871ZM277.661 70V1.34199H322.915V10.7618H287.955V70H277.661ZM316.466 70L342.395 1.34199H355.699L381.531 70H370.46L365.41 56.2101H332.586L327.537 70H316.466ZM335.985 46.9845H362.011L348.998 11.1503L335.985 46.9845ZM399.873 70V10.7618H378.12V1.34199H431.823V10.7618H410.167V70H399.873ZM468.298 70.7769C461.241 70.7769 455.252 69.2878 450.332 66.3098C445.476 63.2669 441.786 59.0911 439.261 53.7823C436.736 48.4736 435.474 42.4526 435.474 35.7195C435.474 28.9217 436.736 22.8684 439.261 17.5597C441.786 12.2509 445.509 8.10744 450.429 5.12934C455.349 2.08651 461.338 0.565092 468.395 0.565092C475.516 0.565092 481.505 2.05414 486.36 5.03223C491.216 8.01033 494.906 12.1538 497.431 17.4625C499.956 22.7713 501.219 28.8246 501.219 35.6224C501.219 42.3555 499.956 48.3764 497.431 53.6852C494.906 58.994 491.184 63.1698 486.263 66.2126C481.408 69.2555 475.419 70.7769 468.298 70.7769ZM468.395 61.3571C473.574 61.3571 477.815 60.1593 481.116 57.7639C484.418 55.3685 486.846 52.2285 488.4 48.3441C489.954 44.4596 490.731 40.2514 490.731 35.7195C490.731 32.2883 490.277 29.0188 489.371 25.9113C488.529 22.8037 487.202 20.0522 485.389 17.6568C483.577 15.2613 481.246 13.3838 478.397 12.0243C475.549 10.6647 472.215 9.98493 468.395 9.98493C463.28 9.98493 459.04 11.1826 455.673 13.5781C452.371 15.9735 449.911 19.1134 448.293 22.9979C446.674 26.8824 445.865 31.1229 445.865 35.7195C445.865 40.2514 446.642 44.4596 448.196 48.3441C449.814 52.2285 452.274 55.3685 455.576 57.7639C458.943 60.1593 463.216 61.3571 468.395 61.3571ZM513.518 70V1.34199H538.281C543.396 1.34199 547.798 2.15125 551.488 3.76978C555.243 5.38831 558.124 7.91322 560.131 11.3445C562.138 14.711 563.142 19.0811 563.142 24.4546C563.142 29.6339 561.976 33.9715 559.646 37.4676C557.38 40.9636 554.272 43.618 550.323 45.4307C546.374 47.1787 541.874 48.0527 536.824 48.0527H523.812V70H513.518ZM523.812 38.73H536.436C541.356 38.73 545.306 37.597 548.284 35.3311C551.262 33.0004 552.751 29.2778 552.751 24.1632C552.751 19.6961 551.521 16.3619 549.061 14.1607C546.6 11.8948 542.878 10.7618 537.893 10.7618H523.812V38.73Z" fill="#ED8D48"/>
</g>
<defs>
<filter id="filter0_d_2112_440" x="0.0605469" y="0.56543" width="567.081" height="78.2119" filterUnits="userSpaceOnUse" color-interpolation-filters="sRGB">
<feFlood flood-opacity="0" result="BackgroundImageFix"/>
<feColorMatrix in="SourceAlpha" type="matrix" values="0 0 0 0 0 0 0 0 0 0 0 0 0 0 0 0 0 0 127 0" result="hardAlpha"/>
<feOffset dy="4"/>
<feGaussianBlur stdDeviation="2"/>
<feComposite in2="hardAlpha" operator="out"/>
<feColorMatrix type="matrix" values="0 0 0 0 0 0 0 0 0 0 0 0 0 0 0 0 0 0 0.25 0"/>
<feBlend mode="normal" in2="BackgroundImageFix" result="effect1_dropShadow_2112_440"/>
<feBlend mode="normal" in="SourceGraphic" in2="effect1_dropShadow_2112_440" result="shape"/>
</filter>
</defs>
</svg>
