<svg width="100" height="89" viewBox="0 0 100 89" fill="none" xmlns="http://www.w3.org/2000/svg">
<path d="M41.1918 84C45.0408 90.6667 54.6633 90.6667 58.5123 84L98.3495 15C102.199 8.33332 97.3873 0 89.6893 0H10.0149C2.3169 0 -2.49433 8.33333 1.35467 15L41.1918 84Z" fill="#D9D9D9"/>
<path d="M41.1918 84C45.0408 90.6667 54.6633 90.6667 58.5123 84L98.3495 15C102.199 8.33332 97.3873 0 89.6893 0H10.0149C2.3169 0 -2.49433 8.33333 1.35467 15L41.1918 84Z" fill="url(#paint0_linear_111_651)"/>
<path d="M41.1918 84C45.0408 90.6667 54.6633 90.6667 58.5123 84L98.3495 15C102.199 8.33332 97.3873 0 89.6893 0H10.0149C2.3169 0 -2.49433 8.33333 1.35467 15L41.1918 84Z" fill="url(#paint1_linear_111_651)"/>
<path d="M42.9239 83C46.0031 88.3333 53.7011 88.3333 56.7803 83L62.8425 72.5C65.9217 67.1667 62.0727 60.5 55.9143 60.5H43.7899C37.6315 60.5 33.7825 67.1667 36.8617 72.5L42.9239 83Z" fill="white"/>
<path d="M66.7891 44.9C68.1874 44.9 69.3786 46.096 69.3786 47.5C69.3786 48.904 68.1874 50.1 66.7891 50.1H35.7162C34.3179 50.1 33.1268 48.904 33.1268 47.5C33.1268 46.096 34.3179 44.9 35.7162 44.9H66.7891ZM66.7891 41H35.7162C32.1687 41 29.2426 43.938 29.2426 47.5C29.2426 51.062 32.1687 54 35.7162 54H66.7891C68.506 54 70.1526 53.3152 71.3666 52.0962C72.5806 50.8772 73.2627 49.2239 73.2627 47.5C73.2627 45.7761 72.5806 44.1228 71.3666 42.9038C70.1526 41.6848 68.506 41 66.7891 41ZM73.5832 27.0093C73.3969 26.0737 72.5757 25.4 71.6218 25.4H67.4944C66.3899 25.4 65.4944 24.5046 65.4944 23.4V17C65.4944 15.8954 64.599 15 63.4944 15H53.5498C52.9189 15 52.325 15.2977 51.9475 15.8031L45.1768 24.8676C44.9186 25.2133 44.7791 25.6331 44.7791 26.0645V36.4C44.7791 37.5046 45.6745 38.4 46.7791 38.4H73.4144C74.6759 38.4 75.6223 37.2465 75.3759 36.0093L73.5832 27.0093ZM52.8659 25.4C51.1998 25.4 50.2642 23.4823 51.2895 22.1691L53.2415 19.6691C53.6205 19.1837 54.202 18.9 54.8179 18.9H58.3156C59.4202 18.9 60.3156 19.7954 60.3156 20.9V23.4C60.3156 24.5046 59.4202 25.4 58.3156 25.4H52.8659ZM44.361 5.77684C44.2248 5.70186 44.0821 5.64461 43.9325 5.60226L33.1412 2.54667C32.076 2.24504 30.9684 2.86619 30.6702 3.93241L24.0638 27.558C23.1834 30.886 25.1255 34.344 28.4658 35.28L30.4382 35.8263C31.0825 36.0048 31.7734 35.8495 32.2794 35.4125L37.1678 31.1904C38.3752 30.1476 37.9354 28.1801 36.3988 27.7507L31.8642 26.4833C30.8019 26.1864 30.1805 25.0854 30.4753 24.0225L34.2736 10.3292C34.5695 9.26249 35.6756 8.63902 36.7414 8.9382L41.8355 10.3682C41.9677 10.4053 42.095 10.4549 42.2156 10.5206C43.3081 11.1157 45.1512 12.3425 46.8029 13.9431C47.7667 14.8771 49.3971 14.8781 50.2016 13.8038L51.1193 12.5781C51.2033 12.466 51.3351 12.4 51.4751 12.4C51.8464 12.4 52.0504 11.9742 51.8071 11.6937C48.9377 8.38466 45.2723 6.27866 44.361 5.77684Z" fill="#7C3C2D"/>
<defs>
<linearGradient id="paint0_linear_111_651" x1="0" y1="44.5" x2="99.7042" y2="44.5" gradientUnits="userSpaceOnUse">
<stop stop-color="#FC4A1A"/>
<stop offset="1" stop-color="#F7B733"/>
</linearGradient>
<linearGradient id="paint1_linear_111_651" x1="0" y1="44.5" x2="99.7042" y2="44.5" gradientUnits="userSpaceOnUse">
<stop stop-color="#F7971E"/>
<stop offset="1" stop-color="#FFD200"/>
</linearGradient>
</defs>
</svg>
