<svg width="100" height="100" viewBox="0 0 100 100" fill="none" xmlns="http://www.w3.org/2000/svg">
<path d="M0 16C0 7.16345 7.16344 0 16 0H84C92.8366 0 100 7.16344 100 16V84C100 92.8366 92.8366 100 84 100H16C7.16345 100 0 92.8366 0 84V16Z" fill="url(#paint0_linear_111_671)"/>
<path d="M72.7999 72.75C74.6822 72.75 76.2856 74.36 76.2856 76.25C76.2856 78.14 74.6822 79.75 72.7999 79.75H30.9709C29.0886 79.75 27.4851 78.14 27.4851 76.25C27.4851 74.36 29.0886 72.75 30.9709 72.75H72.7999ZM72.7999 67.5H30.9709C26.1954 67.5 22.2565 71.455 22.2565 76.25C22.2565 81.045 26.1954 85 30.9709 85H72.7999C75.1111 85 77.3276 84.0781 78.9619 82.4372C80.5961 80.7962 81.5143 78.5706 81.5143 76.25C81.5143 73.9294 80.5961 71.7038 78.9619 70.0628C77.3276 68.4219 75.1111 67.5 72.7999 67.5ZM81.8348 48.1093C81.6484 47.1737 80.8273 46.5 79.8733 46.5H73.057C71.9524 46.5 71.057 45.6046 71.057 44.5V34.5C71.057 33.3954 70.1616 32.5 69.057 32.5H54.6307C53.9998 32.5 53.4059 32.7977 53.0284 33.3031L43.5687 45.9676C43.3105 46.3133 43.171 46.7331 43.171 47.1645V62C43.171 63.1046 44.0664 64 45.171 64H82.5623C83.8238 64 84.7702 62.8465 84.5238 61.6093L81.8348 48.1093ZM52.6381 46.5C50.9721 46.5 50.0364 44.5823 51.0617 43.2691L54.7706 38.5191C55.1496 38.0337 55.7311 37.75 56.347 37.75H62.0855C63.1901 37.75 64.0855 38.6454 64.0855 39.75V44.5C64.0855 45.6046 63.1901 46.5 62.0855 46.5H52.6381ZM42.5365 20.0449C42.4001 19.9703 42.2589 19.9136 42.1093 19.8713L26.8363 15.5467C25.7711 15.245 24.6635 15.8662 24.3653 16.9324L15.285 49.405C14.0998 53.885 16.7142 58.54 21.2108 59.8L24.2229 60.6343C24.8673 60.8128 25.5581 60.6575 26.0641 60.2205L33.9014 53.4515C35.1089 52.4086 34.669 50.4411 33.1325 50.0117L25.1201 47.7723C24.0577 47.4754 23.4364 46.3744 23.7312 45.3115L29.2146 25.5432C29.5105 24.4765 30.6166 23.853 31.6824 24.1522L39.2772 26.2842C39.4095 26.3213 39.5375 26.3714 39.6584 26.4365C41.2649 27.3023 44.148 29.2298 46.5538 31.7388C47.4827 32.7076 49.1066 32.7111 49.9111 31.6368L51.7059 29.2397C51.8189 29.0888 51.9963 29 52.1848 29C52.6846 29 52.9593 28.4268 52.6318 28.0492C48.6888 23.5022 43.6294 20.6426 42.5365 20.0449Z" fill="white"/>
<defs>
<linearGradient id="paint0_linear_111_671" x1="0" y1="50" x2="100" y2="50" gradientUnits="userSpaceOnUse">
<stop stop-color="#FC4A1A"/>
<stop offset="1" stop-color="#F7B733"/>
</linearGradient>
</defs>
</svg>
