<?xml version="1.0" encoding="UTF-8" standalone="no"?>
<svg
   width="100"
   height="100"
   viewBox="0 0 100 100"
   fill="none"
   version="1.1"
   id="svg3"
   sodipodi:docname="Excavator-broken.svg"
   inkscape:version="1.4 (e7c3feb100, 2024-10-09)"
   xmlns:inkscape="http://www.inkscape.org/namespaces/inkscape"
   xmlns:sodipodi="http://sodipodi.sourceforge.net/DTD/sodipodi-0.dtd"
   xmlns="http://www.w3.org/2000/svg"
   xmlns:svg="http://www.w3.org/2000/svg">
  <sodipodi:namedview
     id="namedview3"
     pagecolor="#ffffff"
     bordercolor="#000000"
     borderopacity="0.25"
     inkscape:showpageshadow="2"
     inkscape:pageopacity="0.0"
     inkscape:pagecheckerboard="0"
     inkscape:deskcolor="#d1d1d1"
     inkscape:zoom="7.57"
     inkscape:cx="50"
     inkscape:cy="50"
     inkscape:window-width="1707"
     inkscape:window-height="1003"
     inkscape:window-x="0"
     inkscape:window-y="0"
     inkscape:window-maximized="1"
     inkscape:current-layer="svg3" />
  <path
     d="M 0,16 C 0,7.16345 7.16344,0 16,0 h 68 c 8.8366,0 16,7.16344 16,16 v 68 c 0,8.8366 -7.1634,16 -16,16 H 16 C 7.16345,100 0,92.8366 0,84 Z"
     fill="url(#paint0_linear_111_671)"
     id="path1"
     sodipodi:nodetypes="sssssssss"
     style="fill:#ff0000;fill-opacity:1" />
  <path
     d="m 72.7999,72.75 c 1.8823,0 3.4857,1.61 3.4857,3.5 0,1.89 -1.6034,3.5 -3.4857,3.5 h -41.829 c -1.8823,0 -3.4858,-1.61 -3.4858,-3.5 0,-1.89 1.6035,-3.5 3.4858,-3.5 z m 0,-5.25 h -41.829 c -4.7755,0 -8.7144,3.955 -8.7144,8.75 0,4.795 3.9389,8.75 8.7144,8.75 h 41.829 c 2.3112,0 4.5277,-0.9219 6.162,-2.5628 1.6342,-1.641 2.5524,-3.8666 2.5524,-6.1872 0,-2.3206 -0.9182,-4.5462 -2.5524,-6.1872 C 77.3276,68.4219 75.1111,67.5 72.7999,67.5 Z M 81.8348,48.1093 C 81.6484,47.1737 80.8273,46.5 79.8733,46.5 H 73.057 c -1.1046,0 -2,-0.8954 -2,-2 v -10 c 0,-1.1046 -0.8954,-2 -2,-2 H 54.6307 c -0.6309,0 -1.2248,0.2977 -1.6023,0.8031 l -9.4597,12.6645 c -0.2582,0.3457 -0.3977,0.7655 -0.3977,1.1969 V 62 c 0,1.1046 0.8954,2 2,2 h 37.3913 c 1.2615,0 2.2079,-1.1535 1.9615,-2.3907 z M 52.6381,46.5 c -1.666,0 -2.6017,-1.9177 -1.5764,-3.2309 l 3.7089,-4.75 C 55.1496,38.0337 55.7311,37.75 56.347,37.75 h 5.7385 c 1.1046,0 2,0.8954 2,2 v 4.75 c 0,1.1046 -0.8954,2 -2,2 z M 42.5365,20.0449 c -0.1364,-0.0746 -0.2776,-0.1313 -0.4272,-0.1736 l -15.273,-4.3246 c -1.0652,-0.3017 -2.1728,0.3195 -2.471,1.3857 L 15.285,49.405 c -1.1852,4.48 1.4292,9.135 5.9258,10.395 l 3.0121,0.8343 c 0.6444,0.1785 1.3352,0.0232 1.8412,-0.4138 l 7.8373,-6.769 c 1.2075,-1.0429 0.7676,-3.0104 -0.7689,-3.4398 l -8.0124,-2.2394 c -1.0624,-0.2969 -1.6837,-1.3979 -1.3889,-2.4608 l 5.4834,-19.7683 c 0.2959,-1.0667 1.402,-1.6902 2.4678,-1.391 l 7.5948,2.132 c 0.1323,0.0371 0.2603,0.0872 0.3812,0.1523 1.6065,0.8658 4.4896,2.7933 6.8954,5.3023 0.9289,0.9688 2.5528,0.9723 3.3573,-0.102 l 1.7948,-2.3971 C 51.8189,29.0888 51.9963,29 52.1848,29 c 0.4998,0 0.7745,-0.5732 0.447,-0.9508 -3.943,-4.547 -9.0024,-7.4066 -10.0953,-8.0043 z"
     fill="#ffffff"
     id="path2"
     sodipodi:nodetypes="sssssssssssscscscssssssccssssccsccsssssssccccccccccccccccccscs" />
  <defs
     id="defs3">
    <linearGradient
       id="paint0_linear_111_671"
       x1="0"
       y1="50"
       x2="100"
       y2="50"
       gradientUnits="userSpaceOnUse">
      <stop
         stop-color="#FC4A1A"
         id="stop2" />
      <stop
         offset="1"
         stop-color="#F7B733"
         id="stop3" />
    </linearGradient>
  </defs>
</svg>
