<?xml version="1.0" encoding="UTF-8" standalone="no"?>
<svg
   width="100"
   height="100"
   viewBox="0 0 100 100"
   fill="none"
   version="1.1"
   id="svg3"
   sodipodi:docname="FuelStation-broken.svg"
   inkscape:version="1.4 (e7c3feb100, 2024-10-09)"
   xmlns:inkscape="http://www.inkscape.org/namespaces/inkscape"
   xmlns:sodipodi="http://sodipodi.sourceforge.net/DTD/sodipodi-0.dtd"
   xmlns="http://www.w3.org/2000/svg"
   xmlns:svg="http://www.w3.org/2000/svg">
  <sodipodi:namedview
     id="namedview3"
     pagecolor="#ffffff"
     bordercolor="#000000"
     borderopacity="0.25"
     inkscape:showpageshadow="2"
     inkscape:pageopacity="0.0"
     inkscape:pagecheckerboard="0"
     inkscape:deskcolor="#d1d1d1"
     inkscape:zoom="7.57"
     inkscape:cx="50"
     inkscape:cy="50"
     inkscape:window-width="1707"
     inkscape:window-height="1003"
     inkscape:window-x="0"
     inkscape:window-y="0"
     inkscape:window-maximized="1"
     inkscape:current-layer="svg3" />
  <path
     d="M0 16C0 7.16345 7.16344 0 16 0H84C92.8366 0 100 7.16344 100 16V84C100 92.8366 92.8366 100 84 100H16C7.16345 100 0 92.8366 0 84V16Z"
     fill="url(#paint0_linear_111_676)"
     id="path1"
     style="fill:#ff0000;fill-opacity:1" />
  <path
     d="M19.375 23.75C19.375 18.9238 23.2988 15 28.125 15H50C54.8262 15 58.75 18.9238 58.75 23.75V50H59.8438C66.4883 50 71.875 55.3867 71.875 62.0312V66.4062C71.875 68.2246 73.3379 69.6875 75.1562 69.6875C76.9746 69.6875 78.4375 68.2246 78.4375 66.4062V45.3516C74.6641 44.3809 71.875 40.9492 71.875 36.875V28.125L67.5 23.75C66.2969 22.5469 66.2969 20.5781 67.5 19.375C68.7031 18.1719 70.6719 18.1719 71.875 19.375L82.4434 29.9434C84.084 31.584 85 33.8125 85 36.1367V66.4199C85 71.8613 80.5977 76.2637 75.1562 76.2637C69.7148 76.2637 65.3125 71.8613 65.3125 66.4199V62.0449C65.3125 59.0234 62.8652 56.5762 59.8438 56.5762H58.75V76.2637C61.1699 76.2637 63.125 78.2188 63.125 80.6387C63.125 83.0586 61.1699 85.0137 58.75 85.0137L19.375 85C16.9551 85 15 83.0449 15 80.625C15 78.2051 16.9551 76.25 19.375 76.25V23.75ZM28.125 25.9375V39.0625C28.125 40.2656 29.1094 41.25 30.3125 41.25H47.8125C49.0156 41.25 50 40.2656 50 39.0625V25.9375C50 24.7344 49.0156 23.75 47.8125 23.75H30.3125C29.1094 23.75 28.125 24.7344 28.125 25.9375Z"
     fill="white"
     id="path2" />
  <defs
     id="defs3">
    <linearGradient
       id="paint0_linear_111_676"
       x1="0"
       y1="0"
       x2="100"
       y2="100"
       gradientUnits="userSpaceOnUse">
      <stop
         stop-color="#05386B"
         id="stop2" />
      <stop
         offset="1"
         stop-color="#5CDB95"
         id="stop3" />
    </linearGradient>
  </defs>
</svg>
