<svg width="100" height="100" viewBox="0 0 100 100" fill="none" xmlns="http://www.w3.org/2000/svg">
<path d="M0 16C0 7.16345 7.16344 0 16 0H84C92.8366 0 100 7.16344 100 16V84C100 92.8366 92.8366 100 84 100H16C7.16345 100 0 92.8366 0 84V16Z" fill="url(#paint0_linear_111_677)"/>
<path d="M53.7344 15H24C22.8954 15 22 15.8954 22 17V83C22 84.1046 22.8954 85 24 85H35.4343C36.5389 85 37.4343 84.1046 37.4343 83V64.6C37.4343 63.4954 38.3298 62.6 39.4343 62.6H53.7344C71.2229 62.6 78 48.7806 78 37.372C78 26.0222 71.2229 15 53.7344 15ZM49.5068 48.6H39.4343C38.3298 48.6 37.4343 47.7046 37.4343 46.6V29.6C37.4343 28.4954 38.3298 27.6 39.4343 27.6H49.5068C56.681 27.6 63.0722 29.1792 63.0722 38.0818C63.0708 47.039 56.681 48.6 49.5068 48.6Z" fill="white"/>
<defs>
<linearGradient id="paint0_linear_111_677" x1="0" y1="50" x2="100" y2="50" gradientUnits="userSpaceOnUse">
<stop stop-color="#56CCF2"/>
<stop offset="1" stop-color="#2F80ED"/>
</linearGradient>
</defs>
</svg>
