<?xml version="1.0" encoding="UTF-8" standalone="no"?>
<svg
   width="101"
   height="89"
   viewBox="0 0 101 89"
   fill="none"
   version="1.1"
   id="svg8"
   sodipodi:docname="Truck2-broken.svg"
   inkscape:version="1.4 (e7c3feb100, 2024-10-09)"
   xmlns:inkscape="http://www.inkscape.org/namespaces/inkscape"
   xmlns:sodipodi="http://sodipodi.sourceforge.net/DTD/sodipodi-0.dtd"
   xmlns="http://www.w3.org/2000/svg"
   xmlns:svg="http://www.w3.org/2000/svg">
  <sodipodi:namedview
     id="namedview8"
     pagecolor="#ffffff"
     bordercolor="#000000"
     borderopacity="0.25"
     inkscape:showpageshadow="2"
     inkscape:pageopacity="0.0"
     inkscape:pagecheckerboard="0"
     inkscape:deskcolor="#d1d1d1"
     inkscape:zoom="8.505618"
     inkscape:cx="50.496037"
     inkscape:cy="44.5"
     inkscape:window-width="1707"
     inkscape:window-height="1003"
     inkscape:window-x="0"
     inkscape:window-y="0"
     inkscape:window-maximized="1"
     inkscape:current-layer="svg8" />
  <path
     d="M41.8959 84C45.7449 90.6667 55.3674 90.6667 59.2164 84L99.0536 15C102.903 8.33332 98.0914 0 90.3934 0H10.719C3.021 0 -1.79023 8.33333 2.05877 15L41.8959 84Z"
     fill="#D9D9D9"
     id="path1" />
  <path
     d="M41.8959 84C45.7449 90.6667 55.3674 90.6667 59.2164 84L99.0536 15C102.903 8.33332 98.0914 0 90.3934 0H10.719C3.021 0 -1.79023 8.33333 2.05877 15L41.8959 84Z"
     fill="url(#paint0_linear_111_652)"
     id="path2" />
  <path
     d="M41.8959 84C45.7449 90.6667 55.3674 90.6667 59.2164 84L99.0536 15C102.903 8.33332 98.0914 0 90.3934 0H10.719C3.021 0 -1.79023 8.33333 2.05877 15L41.8959 84Z"
     fill="url(#paint1_linear_111_652)"
     id="path3"
     style="fill:#fa0000;fill-opacity:1" />
  <path
     d="M43.628 83C46.7072 88.3333 54.4052 88.3333 57.4844 83L68.7427 63.5C71.8219 58.1667 67.9729 51.5 61.8145 51.5H39.2979C33.1395 51.5 29.2905 58.1667 32.3697 63.5L43.628 83Z"
     fill="white"
     id="path4" />
  <path
     d="M73.9748 16.7828C73.5963 16.2893 73.0098 16 72.3879 16H61.738C60.6334 16 59.738 16.8954 59.738 18V30C59.738 31.1046 58.8426 32 57.738 32H26.2835C25.1789 32 24.2835 32.8954 24.2835 34V38.6364C24.2835 39.3895 24.894 40 25.6471 40C26.4002 40 26.9987 40.6151 27.1292 41.3568C27.414 42.975 28.2038 44.4803 29.4071 45.6569C30.9415 47.1571 33.0226 48 35.1926 48C37.3625 48 39.4436 47.1571 40.978 45.6569C42.0257 44.6324 42.7599 43.3588 43.1203 41.9784C43.3993 40.9096 44.2698 40 45.3744 40H57.738C58.8426 40 59.7131 40.9096 59.9921 41.9784C60.3525 43.3588 61.0867 44.6324 62.1344 45.6569C63.6688 47.1571 65.7499 48 67.9198 48C70.0898 48 72.1709 47.1571 73.7052 45.6569C74.753 44.6324 75.4872 43.3588 75.8475 41.9784C76.1265 40.9096 76.9971 40 78.1016 40H79.5562C80.6608 40 81.5562 39.1046 81.5562 38V27.3454C81.5562 26.9052 81.411 26.4774 81.1431 26.1281L73.9748 16.7828ZM35.1926 44C34.1076 44 33.067 43.5786 32.2998 42.8284C31.5326 42.0783 31.1016 41.0609 31.1016 40C31.1016 38.9391 31.5326 37.9217 32.2998 37.1716C33.067 36.4214 34.1076 36 35.1926 36C36.2775 36 37.3181 36.4214 38.0853 37.1716C38.8525 37.9217 39.2835 38.9391 39.2835 40C39.2835 41.0609 38.8525 42.0783 38.0853 42.8284C37.3181 43.5786 36.2775 44 35.1926 44ZM67.9198 44C66.8349 44 65.7943 43.5786 65.0271 42.8284C64.2599 42.0783 63.8289 41.0609 63.8289 40C63.8289 38.9391 64.2599 37.9217 65.0271 37.1716C65.7943 36.4214 66.8349 36 67.9198 36C69.0048 36 70.0453 36.4214 70.8125 37.1716C71.5797 37.9217 72.0107 38.9391 72.0107 40C72.0107 41.0609 71.5797 42.0783 70.8125 42.8284C70.0453 43.5786 69.0048 44 67.9198 44ZM67.1926 26.6667C66.088 26.6667 65.1926 25.7712 65.1926 24.6667V22C65.1926 20.8954 66.088 20 67.1926 20H71.0508C71.6576 20 72.2316 20.2755 72.6112 20.7489L74.7494 23.4155C75.7991 24.7247 74.8671 26.6667 73.189 26.6667H67.1926ZM67.9198 11.3333C67.9198 12.4379 67.0244 13.3333 65.9198 13.3333H59.0107C57.9062 13.3333 57.0107 14.2288 57.0107 15.3333V27.3333C57.0107 28.4379 56.1153 29.3333 55.0107 29.3333H28.5095C27.6212 29.3333 26.8394 28.7474 26.59 27.8948L23.2977 16.6391C23.1869 16.2603 22.8395 16 22.4448 16C21.954 16 21.5562 15.6022 21.5562 15.1114V12.6667C21.5562 11.5621 22.4516 10.6667 23.5562 10.6667H53.4682C53.9908 10.6667 54.4927 10.4621 54.8664 10.0967L56.4278 8.56999C56.8015 8.20459 57.3034 8 57.826 8H65.9198C67.0244 8 67.9198 8.89543 67.9198 10V11.3333Z"
     fill="#7C3C2D"
     id="path5"
     style="fill:#ffffff;fill-opacity:1" />
  <defs
     id="defs8">
    <linearGradient
       id="paint0_linear_111_652"
       x1="0.704102"
       y1="44.5"
       x2="100.408"
       y2="44.5"
       gradientUnits="userSpaceOnUse">
      <stop
         stop-color="#FC4A1A"
         id="stop5" />
      <stop
         offset="1"
         stop-color="#F7B733"
         id="stop6" />
    </linearGradient>
    <linearGradient
       id="paint1_linear_111_652"
       x1="0.704102"
       y1="44.5"
       x2="100.408"
       y2="44.5"
       gradientUnits="userSpaceOnUse">
      <stop
         stop-color="#F7971E"
         id="stop7" />
      <stop
         offset="1"
         stop-color="#FFD200"
         id="stop8" />
    </linearGradient>
  </defs>
</svg>
